<?xml version="1.0" encoding="UTF-8"?>
<!DOCTYPE svg PUBLIC "-//W3C//DTD SVG 1.1//EN" "http://www.w3.org/Graphics/SVG/1.1/DTD/svg11.dtd">
<!-- Creator: CorelDRAW 2018 (64-Bit) -->
<svg xmlns="http://www.w3.org/2000/svg" xml:space="preserve" width="4.9389mm" height="1.2508mm" version="1.1" style="shape-rendering:geometricPrecision; text-rendering:geometricPrecision; image-rendering:optimizeQuality; fill-rule:evenodd; clip-rule:evenodd"
viewBox="0 0 527.41 133.57"
 xmlns:xlink="http://www.w3.org/1999/xlink">
 <defs>
  <style type="text/css">
   <![CDATA[
    .fil0 {fill:#FEFEFE}
    .fil1 {fill:#24CEE5}
   ]]>
  </style>
 </defs>
 <g id="Warstwa_x0020_1">
  <metadata id="CorelCorpID_0Corel-Layer"/>
  <path class="fil0" d="M331.68 26.97c7.21,0 13.11,-5.72 13.11,-13.11 0,-7.4 -5.91,-13.12 -13.11,-13.12 -7.39,0 -13.31,5.72 -13.31,13.12 0,7.39 5.92,13.11 13.31,13.11z"/>
  <polygon class="fil0" points="342.76,130.98 342.76,37.88 320.6,37.88 320.6,130.98 "/>
  <path class="fil0" d="M359.51 101.98c0,21.06 9.97,31.59 30.11,31.59 4.43,0 8.32,-0.37 11.46,-1.11l0 -19.77c-2.4,0.56 -4.99,0.74 -7.76,0.74 -8.13,0 -11.64,-3.69 -11.64,-13.85l0 -41.57 20.51 0 0 -20.13 -20.51 0 0 -35.66 -22.17 0 0 35.66 -11.64 0 0 20.13 11.64 0 0 43.97z"/>
  <path class="fil0" d="M407.11 85.16c0,14.6 4.61,26.24 13.67,34.92 9.06,8.68 21.06,13.11 35.66,13.11 15.7,0 28.64,-5.54 39.17,-16.63l-13.31 -12.93c-7.21,7.21 -15.52,10.72 -25.13,10.72 -16.45,0 -27.34,-9.61 -28.07,-24.39l72.41 0c0.19,-2.4 0.37,-4.99 0.37,-7.75 0,-13.24 -4.25,-24.24 -12.93,-33.25 -8.5,-9.06 -19.58,-13.49 -33.07,-13.49 -14.22,0 -25.86,4.43 -35.1,13.49 -9.06,9.01 -13.67,20.75 -13.67,35.46l0 0.74zm22.53 -10.71c0.56,-5.67 3.33,-10.43 8.32,-14.29 4.99,-3.84 11.08,-5.85 17.92,-5.85 6.47,0 11.82,2.01 16.45,6.03 4.61,3.86 7.02,8.63 7.02,14.11l-49.7 0z"/>
  <path class="fil0" d="M72.89 4.85c0,-0.91 0.22,-1.64 0.67,-2.22 0.42,-0.61 1.09,-0.9 1.99,-0.9l5.36 0c0.9,0 1.54,0.29 1.95,0.9 0.42,0.58 0.61,1.31 0.61,2.22l0 56.16 39.84 0 0 -56.16c0,-0.91 0.19,-1.64 0.61,-2.22 0.42,-0.61 1.09,-0.9 2.05,-0.9l5.3 0c0.86,0 1.54,0.29 1.95,0.83 0.45,0.58 0.67,1.31 0.67,2.29l0 123.68c0,0.96 -0.22,1.7 -0.7,2.29 -0.48,0.54 -1.19,0.83 -2.11,0.83l-5.2 0c-0.9,0 -1.54,-0.29 -1.95,-0.83 -0.42,-0.59 -0.61,-1.32 -0.61,-2.29l0 -57.9 -39.84 0 0 57.84c0,0.93 -0.19,1.71 -0.58,2.29 -0.35,0.61 -1.03,0.9 -1.99,0.9l-5.36 0c-0.9,0 -1.57,-0.29 -1.99,-0.9 -0.45,-0.58 -0.67,-1.36 -0.67,-2.32l0 -123.58z"/>
  <path class="fil0" d="M10.58 104.5c0,2.7 0.48,5.2 1.44,7.57 0.99,2.35 2.34,4.4 4.08,6.13 1.7,1.76 3.72,3.15 6.05,4.21 2.32,1.03 4.82,1.54 7.54,1.54 2.7,0 5.23,-0.51 7.6,-1.51 2.4,-1 4.46,-2.38 6.16,-4.14 1.73,-1.73 3.11,-3.78 4.1,-6.16 1,-2.34 1.52,-4.81 1.52,-7.44l0 -75.54c0,-2.69 -0.51,-5.25 -1.52,-7.67 -0.99,-2.4 -2.37,-4.49 -4.1,-6.28 -1.7,-1.79 -3.73,-3.18 -6.07,-4.24 -2.31,-1.03 -4.82,-1.54 -7.51,-1.54 -2.79,0 -5.32,0.51 -7.7,1.54 -2.34,1.06 -4.39,2.45 -6.09,4.24 -1.74,1.79 -3.09,3.88 -4.08,6.28 -0.96,2.41 -1.44,4.98 -1.44,7.67l0 75.35zm-10.58 -75.57c0,-4.13 0.77,-7.99 2.34,-11.51 1.57,-3.52 3.72,-6.61 6.45,-9.21 2.72,-2.59 5.89,-4.62 9.53,-6.07 3.59,-1.44 7.48,-2.15 11.61,-2.15 4.02,0 7.83,0.7 11.43,2.15 3.62,1.44 6.76,3.47 9.46,6.07 2.69,2.59 4.84,5.68 6.45,9.21 1.6,3.52 2.4,7.38 2.4,11.51l0 75.89c0,4.14 -0.8,7.96 -2.4,11.46 -1.61,3.52 -3.76,6.55 -6.48,9.11 -2.73,2.56 -5.91,4.59 -9.53,6.03 -3.6,1.44 -7.44,2.15 -11.52,2.15 -4.07,0 -7.92,-0.74 -11.51,-2.21 -3.63,-1.48 -6.77,-3.5 -9.46,-6.07 -2.7,-2.56 -4.85,-5.58 -6.42,-9.11 -1.57,-3.49 -2.34,-7.28 -2.34,-11.36l0 -75.89z"/>
  <path class="fil1" d="M514.65 108.06c7.05,0 12.76,5.7 12.76,12.75 0,7.05 -5.71,12.76 -12.76,12.76 -7.05,0 -12.76,-5.71 -12.76,-12.76 0,-7.05 5.71,-12.75 12.76,-12.75z"/>
  <path class="fil0" d="M147.13 4.85c0,-0.91 0.22,-1.64 0.67,-2.22 0.42,-0.61 1.09,-0.9 1.99,-0.9l5.36 0c0.9,0 1.54,0.29 1.95,0.9 0.42,0.58 0.61,1.31 0.61,2.22l0 56.16 39.84 0 0 -56.16c0,-0.91 0.19,-1.64 0.61,-2.22 0.42,-0.61 1.09,-0.9 2.05,-0.9l5.3 0c0.86,0 1.54,0.29 1.95,0.83 0.45,0.58 0.67,1.31 0.67,2.29l0 123.68c0,0.96 -0.22,1.7 -0.7,2.29 -0.48,0.54 -1.19,0.83 -2.11,0.83l-5.2 0c-0.9,0 -1.54,-0.29 -1.95,-0.83 -0.42,-0.59 -0.61,-1.32 -0.61,-2.29l0 -57.9 -39.84 0 0 57.84c0,0.93 -0.19,1.71 -0.58,2.29 -0.35,0.61 -1.03,0.9 -1.99,0.9l-5.36 0c-0.9,0 -1.57,-0.29 -1.99,-0.9 -0.45,-0.58 -0.67,-1.36 -0.67,-2.32l0 -123.58z"/>
  <path class="fil0" d="M213.51 103.83c8.13,18.28 25.67,29.37 49.51,29.37 29.38,0 45.09,-15.32 45.09,-38.05 0,-9.61 -2.78,-17.37 -8.14,-23.1 -5.35,-5.72 -14.04,-11.08 -26.23,-16.07l-7.58 -2.96 -6.65 -2.58c-2.4,-1.29 -7.57,-3.51 -9.6,-4.99 -3.14,-3.14 -5.36,-5.72 -5.36,-11.08 0,-7.94 7.39,-13.67 17.56,-13.67 10.35,0 17.92,3.88 22.91,11.45l16.45 -11.27c-8.87,-13.86 -22.17,-20.88 -39.72,-20.88 -11.27,0 -20.7,3.14 -28.45,9.61 -7.58,6.46 -11.46,14.78 -11.46,25.12 0,10.9 3.51,19.22 10.9,25.32 7.39,5.91 14.22,9.24 26.05,13.67 9.61,3.51 13.49,5.17 18.85,8.86 5.36,3.51 7.39,7.39 7.39,13.12 0,8.31 -5.72,16.81 -21.81,16.81 -14.96,0 -25.67,-6.47 -32.32,-19.58l-17.36 10.9z"/>
 </g>
</svg>
