<svg xmlns="http://www.w3.org/2000/svg" width="345.447" height="80.806" viewBox="0 0 345.447 80.806">
  <g id="ohhsiteLogoBackground" transform="translate(0 0.01)" opacity="0.19">
    <path id="Path_2" data-name="Path 2" d="M327.088,17.92a8.537,8.537,0,0,0,8.587-8.587,8.653,8.653,0,1,0-8.587,8.587Z" transform="translate(-109.842 -0.259)" fill="#3b3b3b" fill-rule="evenodd"/>
    <path id="Path_3" data-name="Path 3" d="M335.115,98.859V37.88H320.6V98.859Z" transform="translate(-110.611 -19.759)" fill="#3b3b3b" fill-rule="evenodd"/>
    <path id="Path_4" data-name="Path 4" d="M355.494,62.483c0,12.722,6.53,19.083,19.722,19.083a36.243,36.243,0,0,0,7.506-.671V68.953a24.271,24.271,0,0,1-5.083.447c-5.325,0-7.624-2.229-7.624-8.366V35.922h13.434V23.761H370.015V2.22H355.494V23.761H347.87v12.16h7.624V62.483Z" transform="translate(-120.02 -0.769)" fill="#3b3b3b" fill-rule="evenodd"/>
    <path id="Path_5" data-name="Path 5" d="M407.11,68.016c0,9.563,3.019,17.187,8.954,22.872s13.794,8.587,23.357,8.587a33.831,33.831,0,0,0,25.656-10.892l-8.718-8.469a22.443,22.443,0,0,1-16.46,7.021c-10.775,0-17.907-6.294-18.385-15.975h47.428c.125-1.572.242-3.268.242-5.076,0-8.672-2.784-15.877-8.469-21.778-5.567-5.934-12.825-8.836-21.66-8.836-9.314,0-16.938,2.9-22.99,8.836-5.934,5.9-8.954,13.591-8.954,23.226ZM421.867,61a13.168,13.168,0,0,1,5.449-9.36,18.875,18.875,0,0,1,11.737-3.832,15.743,15.743,0,0,1,10.775,3.95,11.77,11.77,0,0,1,4.6,9.242H421.873Z" transform="translate(-140.458 -18.928)" fill="#3b3b3b" fill-rule="evenodd"/>
    <path id="Path_6" data-name="Path 6" d="M72.89,3.613a2,2,0,0,1,.439-1.34,1.521,1.521,0,0,1,1.3-.543h3.511a1.462,1.462,0,0,1,1.277.543,2.086,2.086,0,0,1,.4,1.34V37.507h26.095V3.613a2.086,2.086,0,0,1,.4-1.34,1.552,1.552,0,0,1,1.343-.543h3.471a1.594,1.594,0,0,1,1.277.5,2.037,2.037,0,0,1,.439,1.382V78.257a1.98,1.98,0,0,1-.458,1.382,1.845,1.845,0,0,1-1.382.5H107.6a1.558,1.558,0,0,1-1.277-.5,2.154,2.154,0,0,1-.4-1.382V43.313H79.826V78.22a2.311,2.311,0,0,1-.38,1.382,1.422,1.422,0,0,1-1.3.543H74.632a1.521,1.521,0,0,1-1.3-.543,2.109,2.109,0,0,1-.439-1.4V3.619Z" transform="translate(-25.148 -0.6)" fill="#3b3b3b" fill-rule="evenodd"/>
    <path id="Path_7" data-name="Path 7" d="M6.93,63.211a11.227,11.227,0,0,0,.943,4.579A11.388,11.388,0,0,0,10.545,71.5a12.731,12.731,0,0,0,8.9,3.478,13.583,13.583,0,0,0,4.978-.913,12,12,0,0,0,4.035-2.5,11.4,11.4,0,0,0,2.685-3.726,10.582,10.582,0,0,0,1-4.5v-45.7a11.149,11.149,0,0,0-1-4.64,11.965,11.965,0,0,0-2.685-3.8,12.579,12.579,0,0,0-3.976-2.565A12.806,12.806,0,0,0,19.564,5.7a13.373,13.373,0,0,0-5.043.932A12.641,12.641,0,0,0,10.532,9.2,11.825,11.825,0,0,0,7.86,13a11.619,11.619,0,0,0-.943,4.64V63.217ZM0,17.5a15.835,15.835,0,0,1,1.533-6.963A17.482,17.482,0,0,1,5.757,4.963,19.589,19.589,0,0,1,12,1.291a21.77,21.77,0,0,1,7.6-1.3,21.288,21.288,0,0,1,7.487,1.3,19.149,19.149,0,0,1,6.2,3.672,18.132,18.132,0,0,1,4.225,5.571A15.6,15.6,0,0,1,39.083,17.5V63.4a15.411,15.411,0,0,1-1.572,6.932,17.51,17.51,0,0,1-4.244,5.511A19.979,19.979,0,0,1,27.025,79.5a21.6,21.6,0,0,1-7.545,1.3,21.171,21.171,0,0,1-7.539-1.337,19.782,19.782,0,0,1-6.2-3.672,17.138,17.138,0,0,1-4.205-5.511A15.481,15.481,0,0,1,.007,63.4V17.5Z" transform="translate(0 0)" fill="#3b3b3b" fill-rule="evenodd"/>
    <path id="Path_8" data-name="Path 8" d="M510.248,108.06a8.354,8.354,0,1,1-8.358,8.351,8.35,8.35,0,0,1,8.358-8.351Z" transform="translate(-173.158 -43.972)" fill="#24cee5" fill-rule="evenodd"/>
    <path id="Path_9" data-name="Path 9" d="M147.13,3.613a2,2,0,0,1,.439-1.34,1.521,1.521,0,0,1,1.3-.543h3.511a1.462,1.462,0,0,1,1.277.543,2.086,2.086,0,0,1,.4,1.34V37.507h26.095V3.613a2.086,2.086,0,0,1,.4-1.34A1.552,1.552,0,0,1,181.9,1.73h3.471a1.594,1.594,0,0,1,1.277.5,2.037,2.037,0,0,1,.439,1.382V78.257a1.98,1.98,0,0,1-.458,1.382,1.845,1.845,0,0,1-1.382.5h-3.406a1.558,1.558,0,0,1-1.277-.5,2.154,2.154,0,0,1-.4-1.382V43.313H154.066V78.22a2.311,2.311,0,0,1-.38,1.382,1.422,1.422,0,0,1-1.3.543h-3.511a1.521,1.521,0,0,1-1.3-.543,2.108,2.108,0,0,1-.439-1.4V3.619Z" transform="translate(-50.762 -0.6)" fill="#3b3b3b" fill-rule="evenodd"/>
    <path id="Path_10" data-name="Path 10" d="M213.51,62.795c5.325,11.055,16.813,17.763,32.428,17.763,19.244,0,29.533-9.265,29.533-23.012,0-5.812-1.821-10.505-5.332-13.971s-9.2-6.7-17.18-9.719L248,32.066l-4.356-1.56c-1.572-.78-4.958-2.123-6.288-3.018-2.057-1.9-3.511-3.459-3.511-6.7,0-4.8,4.84-8.267,11.5-8.267,6.779,0,11.737,2.347,15.006,6.925l10.775-6.816C265.313,4.246,256.6,0,245.107,0c-7.382,0-13.558,1.9-18.634,5.812A18.462,18.462,0,0,0,218.966,21c0,6.592,2.3,11.624,7.139,15.313,4.84,3.574,9.314,5.588,17.062,8.267,6.294,2.123,8.836,3.127,12.347,5.358,3.511,2.123,4.84,4.469,4.84,7.935,0,5.026-3.747,10.166-14.285,10.166-9.8,0-16.814-3.913-21.169-11.842L213.53,62.795Z" transform="translate(-73.664 -0.003)" fill="#3b3b3b" fill-rule="evenodd"/>
  </g>
</svg>
